<?xml version="1.0" encoding="UTF-8"?>
<svg width="62" height="62" viewBox="0 0 62 62" xmlns="http://www.w3.org/2000/svg">
    <path fill="#000000" fill-rule="evenodd" stroke="none" d="M 31 55 C 26.029449 55 22 50.970551 22 46 C 22 44.144531 22.561203 41.306225 23.523438 38.476563 C 20.693775 39.438797 17.855469 40 16 40 C 11.029447 40 7 35.970551 7 31 C 7 26.029449 11.029447 22 16 22 C 17.855469 22 20.693775 22.561203 23.523438 23.523438 C 22.561203 20.693775 22 17.855469 22 16 C 22 11.029446 26.029449 7 31 7 C 35.970551 7 40 11.029446 40 16 C 40 17.855469 39.438797 20.693775 38.476563 23.523438 C 41.306225 22.561203 44.144531 22 46 22 C 50.970554 22 55 26.029449 55 31 C 55 35.970551 50.970554 40 46 40 C 44.144531 40 41.306225 39.438797 38.476563 38.476563 C 39.438797 41.306225 40 44.144531 40 46 C 40 50.970551 35.970551 55 31 55 Z"/>
</svg>
