<?xml version="1.0" encoding="UTF-8"?>
<svg width="62" height="62" viewBox="0 0 62 62" xmlns="http://www.w3.org/2000/svg">
    <path fill="#000000" fill-rule="evenodd" stroke="none" d="M 8 55 C 4.686305 55 2 52.313694 2 49 C 2 45.686302 4.686305 43 8 43 C 9.29519 43 10.494061 43.411541 11.474609 44.109375 L 27.121094 17.576172 C 25.824137 16.475594 25 14.834244 25 13 C 25 9.686298 27.686298 7 31 7 C 34.313702 7 37 9.686298 37 13 C 37 14.834244 36.175865 16.475594 34.878906 17.576172 L 50.525391 44.109375 C 51.505943 43.411541 52.704807 43 54 43 C 57.313698 43 60 45.686302 60 49 C 60 52.313698 57.313698 55 54 55 C 51.027153 55 48.560226 52.837509 48.083984 50 L 13.916016 50 C 13.439775 52.837509 10.972846 55 8 55 Z M 31 42 C 34.313705 42 37 39.313705 37 36 C 37 32.686295 34.313705 30 31 30 C 27.686295 30 25 32.686295 25 36 C 25 39.313705 27.686295 42 31 42 Z"/>
</svg>
