<?xml version="1.0" encoding="UTF-8"?>
<svg width="62" height="62" viewBox="0 0 62 62" xmlns="http://www.w3.org/2000/svg">
    <path fill="#000000" fill-rule="evenodd" stroke="none" d="M 31 53 C 25.914709 53 21.233665 51.274261 17.507813 48.376953 L 0 44 L 24.257813 36.957031 C 25.906794 38.821716 28.31506 40 31 40 C 35.487518 40 39.207954 36.715969 39.888672 32.419922 L 52.873047 28.650391 C 52.955284 29.422745 53 30.205847 53 31 C 53 43.150215 43.150219 53 31 53 Z M 9.126953 33.349609 C 9.044714 32.577255 9 31.794153 9 31 C 9 18.849781 18.849781 9 31 9 C 36.085297 9 40.766338 10.725746 44.492188 13.623047 L 62 18 L 37.742188 25.042969 C 36.093208 23.178284 33.68494 22 31 22 C 26.512484 22 22.792046 25.284031 22.111328 29.580078 L 9.126953 33.349609 Z"/>
</svg>
