<?xml version="1.0" encoding="UTF-8"?>
<svg width="50" height="50" viewBox="0 0 50 50" xmlns="http://www.w3.org/2000/svg">
    <path fill="#000000" fill-rule="evenodd" stroke="none" d="M 25 49 L 21.287109 40.644531 L 14.294922 36.210938 L 5 39 L 13 28.333984 L 13 22.666016 L 5 12 L 14.294922 14.789063 L 21.287109 10.355469 L 25 2 L 28.712891 10.355469 L 35.705078 14.789063 L 45 12 L 37 22.666016 L 37 28.333984 L 45 39 L 35.705078 36.210938 L 28.712891 40.644531 L 25 49 Z M 25 39 L 34 33.130859 L 34 17.869141 L 25 12 L 16 17.869141 L 16 33.130859 L 25 39 Z M 25 37 L 18 32 L 18 19 L 25 14 L 32 19 L 32 32 L 25 37 Z M 25 32.142578 L 28 29.285156 L 28 21.857422 L 25 19 L 22 21.857422 L 22 29.285156 L 25 32.142578 Z"/>
</svg>
